<svg xmlns="http://www.w3.org/2000/svg" viewBox="0 0 40 40" fill="none">
  <rect width="40" height="40" rx="8" fill="#3182F6"/>
  <path d="M12 15C12 13.8954 12.8954 13 14 13H20.28C20.6925 13 21.0871 13.1671 21.3786 13.4648L26 18L21.3786 22.5352C21.0871 22.8329 20.6925 23 20.28 23H14C12.8954 23 12 22.1046 12 21V15Z" fill="white"/>
  <path d="M28 25C28 26.1046 27.1046 27 26 27H19.72C19.3075 27 18.9129 26.8329 18.6214 26.5352L14 22L18.6214 17.4648C18.9129 17.1671 19.3075 17 19.72 17H26C27.1046 17 28 17.8954 28 19V25Z" fill="white" fill-opacity="0.6"/>
</svg>
